<svg width="446" height="142" viewBox="0 0 446 142" fill="none" xmlns="http://www.w3.org/2000/svg">
<g clip-path="url(#clip0)">
<path d="M60.1173 57.3895C54.2447 57.3895 49.4669 62.1672 49.4669 68.0398C49.4669 73.9124 54.2447 78.6902 60.1173 78.6902C65.99 78.6902 70.7677 73.9124 70.7677 68.0398C70.7677 62.1672 65.9901 57.3895 60.1173 57.3895ZM60.1173 76.2879C55.5694 76.2879 51.8693 72.5878 51.8693 68.0398C51.8693 63.4919 55.5694 59.7918 60.1173 59.7918C64.6653 59.7918 68.3654 63.4919 68.3654 68.0398C68.3654 72.5878 64.6653 76.2879 60.1173 76.2879Z" fill="#FC6DFF"/>
<path d="M61.2018 66.7932C61.0895 66.7431 60.9955 66.7474 60.0249 66.3697C59.8595 66.2908 59.7636 66.1032 59.8137 65.9269C59.9348 65.6835 60.3131 65.7305 60.6611 65.9514C61.1724 66.3612 61.9197 66.2857 62.3382 65.7788C62.7606 65.2672 62.6883 64.5102 62.1768 64.0877C61.9838 63.9282 61.6837 63.7416 61.3184 63.595C61.3334 63.0801 60.8835 62.3585 60.1172 62.3585C59.5368 62.3585 58.9123 62.85 58.916 63.6123C58.2935 63.896 57.6232 64.6111 57.4479 65.5006C57.2845 66.3435 57.5135 67.2618 58.0313 67.8401C58.5697 68.4415 59.2591 68.6728 59.9889 68.9175C60.1801 68.976 60.4325 69.0254 60.5928 69.2692C60.7019 69.435 60.6925 69.6627 60.5467 69.7974C60.2227 70.0967 59.4653 70.1433 59.0137 69.7913C58.4669 69.4377 57.7166 69.5536 57.343 70.087C56.9517 70.6454 57.1027 71.4124 57.6692 71.7825C58.1373 72.0884 58.5188 72.2582 58.916 72.3498C58.9179 72.7057 59.13 73.2343 59.7238 73.5068C60.5541 73.7714 61.3184 73.1589 61.3184 72.3681V72.1773C62.2204 71.7707 62.8954 70.9385 63.0682 69.909C63.3012 68.5218 62.5512 67.2697 61.2018 66.7932Z" fill="#FC6DFF"/>
<path d="M99.5957 75.9647H97.4216C97.9346 73.5555 98.2483 70.6067 98.2331 68.0115C98.2057 57.8694 94.2446 48.3385 87.07 41.164C79.9357 34.0111 70.2631 29.9869 60.1172 29.9998C50.3693 29.9998 41.0935 33.6774 33.9984 40.3549C33.5152 40.8096 33.4923 41.5697 33.947 42.0529C34.4015 42.5359 35.1616 42.559 35.645 42.1043C38.9831 38.9627 42.8366 36.5304 47.0025 34.8865L50.9564 45.4777C42.3909 48.9563 36.2294 57.1593 35.7268 66.8358H24.4262C24.6897 59.2348 27.2967 52.0832 32.0088 46.0811C32.4185 45.5593 32.3277 44.8042 31.8057 44.3947C31.2838 43.9849 30.5288 44.0758 30.1193 44.5978C24.8075 51.3633 22 59.4961 22 68.117C22 78.2985 25.9648 87.8705 33.1642 95.0699C40.3635 102.269 49.9357 106.234 60.1172 106.234C62.7631 106.234 65.3956 105.959 67.9648 105.421V107.596C67.9648 110.024 69.9405 112 72.3691 112H99.5957C102.024 112 104 110.024 104 107.596V80.369C104 77.9405 102.024 75.9647 99.5957 75.9647ZM83.2522 75.9647C83.9886 73.7968 84.4116 71.5442 84.5149 69.2381H95.8144C95.7441 71.5095 95.4577 73.7637 94.9646 75.9647H83.2522ZM95.8066 66.8358H84.5075C84.2042 60.9965 81.8403 55.6939 78.1311 51.6418L86.1158 43.657C91.8634 49.7625 95.4893 57.8848 95.8066 66.8358ZM61.3984 32.4277C70.2687 32.7422 78.3249 36.3062 84.4114 41.964L76.4243 49.9512C72.3941 46.3297 67.1573 44.0259 61.3984 43.7267V32.4277ZM49.2658 34.0809C52.3879 33.0875 55.6578 32.5252 58.9961 32.4217V43.72C57.0012 43.8106 55.0681 44.142 53.2247 44.6851L49.2658 34.0809ZM60.1172 103.832C40.7991 103.832 25.0162 88.4146 24.4217 69.2381H35.722C35.9142 73.457 37.1855 77.5409 39.4341 81.1126C39.6624 81.4752 40.0527 81.6739 40.4518 81.6739C40.6704 81.6739 40.8919 81.6142 41.0905 81.4891C41.6518 81.1357 41.8205 80.394 41.467 79.8326C39.2615 76.3294 38.0957 72.2782 38.0957 68.1172C38.0957 55.9745 47.9745 46.0957 60.1172 46.0957C72.2599 46.0957 82.1387 55.9743 82.1387 68.117C82.1387 70.8275 81.6534 73.4635 80.6981 75.9647H75.0415C76.3354 73.5367 77.0138 70.8354 77.0138 68.0397C77.0138 64.5255 75.9451 61.1562 73.923 58.2961C73.54 57.7543 72.7905 57.6257 72.2487 58.0088C71.7069 58.3919 71.5783 59.1412 71.9614 59.683C73.6951 62.1354 74.6115 65.0251 74.6115 68.0398C74.6115 70.8815 73.7979 73.6104 72.2532 75.9679C69.9261 76.0286 68.0436 77.9019 67.9685 80.2255C65.6286 81.7374 62.9258 82.5341 60.1173 82.5341C52.1252 82.5341 45.6232 76.0321 45.6232 68.04C45.6232 60.0479 52.1252 53.5459 60.1173 53.5459C63.058 53.5459 65.8889 54.4213 68.3041 56.0775C68.8512 56.453 69.5989 56.3135 69.974 55.7663C70.3493 55.2192 70.2099 54.4716 69.6628 54.0963C66.846 52.1645 63.5453 51.1435 60.1175 51.1435C50.8007 51.1435 43.221 58.7232 43.221 68.04C43.221 77.3568 50.8007 84.9365 60.1175 84.9365C62.881 84.9365 65.5563 84.2722 67.965 83.0052V88.6984C65.4638 89.6537 62.8278 90.139 60.1173 90.139C54.3685 90.139 48.9287 87.9372 44.7998 83.9392C44.3232 83.4776 43.5628 83.49 43.1014 83.9664C42.6398 84.443 42.6521 85.2035 43.1286 85.6649C47.708 90.0988 53.7412 92.5409 60.1172 92.5409C62.8147 92.5409 65.4469 92.1073 67.9648 91.2519V102.965C65.4022 103.539 62.767 103.832 60.1172 103.832ZM101.598 107.596C101.598 108.7 100.7 109.598 99.5957 109.598H72.3691C71.2652 109.598 70.3672 108.7 70.3672 107.596V80.369C70.3672 79.265 71.2652 78.367 72.3691 78.367H99.5957C100.7 78.367 101.598 79.265 101.598 80.369V107.596Z" fill="#FC6DFF"/>
<path d="M97.1934 80.7695H74.7715C73.6675 80.7695 72.7695 81.6675 72.7695 82.7715V85.9746C72.7695 87.0786 73.6675 87.9766 74.7715 87.9766H85.3231C85.9864 87.9766 86.5242 87.4388 86.5242 86.7754C86.5242 86.112 85.9864 85.5742 85.3231 85.5742H75.1719V83.1719H96.793V85.5742H90.9932C90.3299 85.5742 89.7921 86.112 89.7921 86.7754C89.7921 87.4388 90.3299 87.9766 90.9932 87.9766H97.1934C98.2973 87.9766 99.1953 87.0786 99.1953 85.9746V82.7715C99.1953 81.6677 98.2973 80.7695 97.1934 80.7695Z" fill="#FC6DFF"/>
<path d="M77.9746 90.3789H74.7715C73.6675 90.3789 72.7695 91.2769 72.7695 92.3809V95.584C72.7695 96.6879 73.6675 97.5859 74.7715 97.5859H77.9746C79.0786 97.5859 79.9766 96.6879 79.9766 95.584V92.3809C79.9766 91.2771 79.0786 90.3789 77.9746 90.3789ZM77.5742 95.1836H75.1719V92.7812H77.5742V95.1836Z" fill="#FC6DFF"/>
<path d="M77.9746 99.9883H74.7715C73.6675 99.9883 72.7695 100.886 72.7695 101.99V105.193C72.7695 106.297 73.6675 107.195 74.7715 107.195H77.9746C79.0786 107.195 79.9766 106.297 79.9766 105.193V101.99C79.9766 100.886 79.0786 99.9883 77.9746 99.9883ZM77.5742 104.793H75.1719V102.391H77.5742V104.793Z" fill="#FC6DFF"/>
<path d="M87.584 90.3789H84.3809C83.2769 90.3789 82.3789 91.2769 82.3789 92.3809V95.584C82.3789 96.6879 83.2769 97.5859 84.3809 97.5859H87.584C88.6879 97.5859 89.5859 96.6879 89.5859 95.584V92.3809C89.5859 91.2771 88.6879 90.3789 87.584 90.3789ZM87.1836 95.1836H84.7812V92.7812H87.1836V95.1836Z" fill="#FC6DFF"/>
<path d="M87.584 99.9883H84.3809C83.2769 99.9883 82.3789 100.886 82.3789 101.99V105.193C82.3789 106.297 83.2769 107.195 84.3809 107.195H87.584C88.6879 107.195 89.5859 106.297 89.5859 105.193V101.99C89.5859 100.886 88.6879 99.9883 87.584 99.9883ZM87.1836 104.793H84.7812V102.391H87.1836V104.793Z" fill="#FC6DFF"/>
<path d="M97.1934 90.3789H93.9902C92.8863 90.3789 91.9883 91.2769 91.9883 92.3809V105.193C91.9883 106.297 92.8863 107.195 93.9902 107.195H97.1934C98.2973 107.195 99.1953 106.297 99.1953 105.193V92.3809C99.1953 91.2771 98.2973 90.3789 97.1934 90.3789ZM96.793 104.793H94.3906V92.7812H96.793V104.793Z" fill="#FC6DFF"/>
</g>
<path d="M129.38 84L119.048 72.552V84H115.772V58.908H119.048V70.536L129.416 58.908H133.556L122.18 71.472L133.664 84H129.38ZM145.927 84.324C144.079 84.324 142.399 83.904 140.887 83.064C139.399 82.224 138.223 81.036 137.359 79.5C136.519 77.94 136.099 76.14 136.099 74.1C136.099 72.084 136.531 70.308 137.395 68.772C138.283 67.212 139.483 66.024 140.995 65.208C142.507 64.368 144.199 63.948 146.071 63.948C147.943 63.948 149.635 64.368 151.147 65.208C152.659 66.024 153.847 67.2 154.711 68.736C155.599 70.272 156.043 72.06 156.043 74.1C156.043 76.14 155.587 77.94 154.675 79.5C153.787 81.036 152.575 82.224 151.039 83.064C149.503 83.904 147.799 84.324 145.927 84.324ZM145.927 81.444C147.103 81.444 148.207 81.168 149.239 80.616C150.271 80.064 151.099 79.236 151.723 78.132C152.371 77.028 152.695 75.684 152.695 74.1C152.695 72.516 152.383 71.172 151.759 70.068C151.135 68.964 150.319 68.148 149.311 67.62C148.303 67.068 147.211 66.792 146.035 66.792C144.835 66.792 143.731 67.068 142.723 67.62C141.739 68.148 140.947 68.964 140.347 70.068C139.747 71.172 139.447 72.516 139.447 74.1C139.447 75.708 139.735 77.064 140.311 78.168C140.911 79.272 141.703 80.1 142.687 80.652C143.671 81.18 144.751 81.444 145.927 81.444ZM167.334 84.324C165.822 84.324 164.466 84.072 163.266 83.568C162.066 83.04 161.118 82.32 160.422 81.408C159.726 80.472 159.342 79.404 159.27 78.204H162.654C162.75 79.188 163.206 79.992 164.022 80.616C164.862 81.24 165.954 81.552 167.298 81.552C168.546 81.552 169.53 81.276 170.25 80.724C170.97 80.172 171.33 79.476 171.33 78.636C171.33 77.772 170.946 77.136 170.178 76.728C169.41 76.296 168.222 75.876 166.614 75.468C165.15 75.084 163.95 74.7 163.014 74.316C162.102 73.908 161.31 73.32 160.638 72.552C159.99 71.76 159.666 70.728 159.666 69.456C159.666 68.448 159.966 67.524 160.566 66.684C161.166 65.844 162.018 65.184 163.122 64.704C164.226 64.2 165.486 63.948 166.902 63.948C169.086 63.948 170.85 64.5 172.194 65.604C173.538 66.708 174.258 68.22 174.354 70.14H171.078C171.006 69.108 170.586 68.28 169.818 67.656C169.074 67.032 168.066 66.72 166.794 66.72C165.618 66.72 164.682 66.972 163.986 67.476C163.29 67.98 162.942 68.64 162.942 69.456C162.942 70.104 163.146 70.644 163.554 71.076C163.986 71.484 164.514 71.82 165.138 72.084C165.786 72.324 166.674 72.6 167.802 72.912C169.218 73.296 170.37 73.68 171.258 74.064C172.146 74.424 172.902 74.976 173.526 75.72C174.174 76.464 174.51 77.436 174.534 78.636C174.534 79.716 174.234 80.688 173.634 81.552C173.034 82.416 172.182 83.1 171.078 83.604C169.998 84.084 168.75 84.324 167.334 84.324ZM202.883 63.912C204.419 63.912 205.787 64.236 206.987 64.884C208.187 65.508 209.135 66.456 209.831 67.728C210.527 69 210.875 70.548 210.875 72.372V84H207.635V72.84C207.635 70.872 207.143 69.372 206.159 68.34C205.199 67.284 203.891 66.756 202.235 66.756C200.531 66.756 199.175 67.308 198.167 68.412C197.159 69.492 196.655 71.064 196.655 73.128V84H193.415V72.84C193.415 70.872 192.923 69.372 191.939 68.34C190.979 67.284 189.671 66.756 188.015 66.756C186.311 66.756 184.955 67.308 183.947 68.412C182.939 69.492 182.435 71.064 182.435 73.128V84H179.159V64.272H182.435V67.116C183.083 66.084 183.947 65.292 185.027 64.74C186.131 64.188 187.343 63.912 188.663 63.912C190.319 63.912 191.783 64.284 193.055 65.028C194.327 65.772 195.275 66.864 195.899 68.304C196.451 66.912 197.363 65.832 198.635 65.064C199.907 64.296 201.323 63.912 202.883 63.912ZM234.249 73.38C234.249 74.004 234.213 74.664 234.141 75.36H218.373C218.493 77.304 219.153 78.828 220.353 79.932C221.577 81.012 223.053 81.552 224.781 81.552C226.197 81.552 227.373 81.228 228.309 80.58C229.269 79.908 229.941 79.02 230.325 77.916H233.853C233.325 79.812 232.269 81.36 230.685 82.56C229.101 83.736 227.133 84.324 224.781 84.324C222.909 84.324 221.229 83.904 219.741 83.064C218.277 82.224 217.125 81.036 216.285 79.5C215.445 77.94 215.025 76.14 215.025 74.1C215.025 72.06 215.433 70.272 216.249 68.736C217.065 67.2 218.205 66.024 219.669 65.208C221.157 64.368 222.861 63.948 224.781 63.948C226.653 63.948 228.309 64.356 229.749 65.172C231.189 65.988 232.293 67.116 233.061 68.556C233.853 69.972 234.249 71.58 234.249 73.38ZM230.865 72.696C230.865 71.448 230.589 70.38 230.037 69.492C229.485 68.58 228.729 67.896 227.769 67.44C226.833 66.96 225.789 66.72 224.637 66.72C222.981 66.72 221.565 67.248 220.389 68.304C219.237 69.36 218.577 70.824 218.409 72.696H230.865Z" fill="#FC6DFF"/>
<path d="M253.28 60.032H256.8L264.576 82.112L266.56 82.432V84H258.112V82.432L260.768 82.112L259.264 77.376H249.92L248.416 82.112L251.168 82.432V84H243.584V82.432L245.568 82.112L253.28 60.032ZM255.296 65.152L254.496 62.336L253.728 65.216L250.496 75.488H258.656L255.296 65.152ZM267.212 75.232C267.212 73.4613 267.554 71.8613 268.236 70.432C268.94 69.0027 269.964 67.872 271.308 67.04C272.674 66.1867 274.306 65.76 276.204 65.76C277.122 65.76 277.911 65.8453 278.572 66.016C279.234 66.1867 280.023 66.4213 280.94 66.72L280.812 71.648H278.732L278.028 68.384C277.9 67.7867 277.09 67.488 275.596 67.488C274.103 67.488 272.919 68.096 272.044 69.312C271.191 70.5067 270.764 72.2133 270.764 74.432C270.764 76.9493 271.244 78.8693 272.204 80.192C273.186 81.4933 274.455 82.144 276.012 82.144C276.908 82.144 277.751 82.0053 278.54 81.728C279.351 81.4507 280.044 81.12 280.62 80.736L281.228 82.016C280.652 82.6133 279.799 83.1573 278.668 83.648C277.559 84.1173 276.428 84.352 275.276 84.352C273.527 84.352 272.044 83.9573 270.828 83.168C269.634 82.3787 268.727 81.3013 268.108 79.936C267.511 78.5493 267.212 76.9813 267.212 75.232ZM283.618 75.232C283.618 73.4613 283.96 71.8613 284.643 70.432C285.347 69.0027 286.371 67.872 287.715 67.04C289.08 66.1867 290.712 65.76 292.611 65.76C293.528 65.76 294.317 65.8453 294.979 66.016C295.64 66.1867 296.429 66.4213 297.347 66.72L297.219 71.648H295.139L294.435 68.384C294.307 67.7867 293.496 67.488 292.003 67.488C290.509 67.488 289.325 68.096 288.451 69.312C287.597 70.5067 287.171 72.2133 287.171 74.432C287.171 76.9493 287.651 78.8693 288.611 80.192C289.592 81.4933 290.861 82.144 292.419 82.144C293.315 82.144 294.157 82.0053 294.947 81.728C295.757 81.4507 296.451 81.12 297.027 80.736L297.635 82.016C297.059 82.6133 296.205 83.1573 295.075 83.648C293.965 84.1173 292.835 84.352 291.683 84.352C289.933 84.352 288.451 83.9573 287.235 83.168C286.04 82.3787 285.133 81.3013 284.515 79.936C283.917 78.5493 283.618 76.9813 283.618 75.232ZM300.409 75.072C300.409 73.152 300.803 71.488 301.593 70.08C302.382 68.672 303.417 67.6053 304.697 66.88C305.998 66.1333 307.385 65.76 308.857 65.76C311.545 65.76 313.561 66.6133 314.905 68.32C316.27 70.0267 316.953 72.2667 316.953 75.04C316.953 76.9813 316.558 78.656 315.769 80.064C314.979 81.472 313.934 82.5387 312.633 83.264C311.353 83.9893 309.977 84.352 308.505 84.352C305.817 84.352 303.79 83.4987 302.425 81.792C301.081 80.0853 300.409 77.8453 300.409 75.072ZM308.697 82.528C310.169 82.528 311.299 81.92 312.089 80.704C312.878 79.488 313.273 77.6853 313.273 75.296C313.273 72.928 312.91 71.0507 312.185 69.664C311.459 68.2773 310.297 67.584 308.697 67.584C307.225 67.584 306.083 68.192 305.273 69.408C304.483 70.624 304.089 72.4267 304.089 74.816C304.089 77.184 304.462 79.0613 305.209 80.448C305.955 81.8347 307.118 82.528 308.697 82.528ZM334.438 84.288C333.84 84.288 333.392 84.1707 333.094 83.936C332.816 83.7013 332.678 83.3173 332.678 82.784V81.696C331.974 82.4 331.088 83.0187 330.022 83.552C328.976 84.0853 327.92 84.352 326.854 84.352C324.87 84.352 323.462 83.8187 322.63 82.752C321.798 81.6853 321.382 79.9253 321.382 77.472V68.192L319.59 67.68V66.272L324.07 65.856H324.102L324.71 66.24V77.216C324.71 78.4533 324.795 79.424 324.966 80.128C325.158 80.8107 325.478 81.3227 325.926 81.664C326.395 81.984 327.067 82.144 327.942 82.144C328.795 82.144 329.595 81.9627 330.342 81.6C331.088 81.2373 331.739 80.8107 332.294 80.32V68.192L329.99 67.68V66.272L334.854 65.856H334.885L335.622 66.24V82.368H337.542L337.51 83.808C336.912 83.9573 336.39 84.0747 335.942 84.16C335.515 84.2453 335.014 84.288 334.438 84.288ZM342.016 68.704L339.712 68.128V66.4L344.288 65.824H344.384L345.056 66.4V67.744L345.024 68.512C345.792 67.8293 346.806 67.2107 348.064 66.656C349.323 66.1013 350.528 65.824 351.68 65.824C353.024 65.824 354.059 66.08 354.784 66.592C355.531 67.104 356.054 67.8933 356.352 68.96C356.651 70.0053 356.8 71.424 356.8 73.216V82.176L359.04 82.4V84H351.456V82.432L353.44 82.176V73.184C353.44 71.9253 353.355 70.944 353.184 70.24C353.014 69.5147 352.694 68.9813 352.224 68.64C351.755 68.2773 351.072 68.096 350.176 68.096C349.408 68.096 348.587 68.288 347.712 68.672C346.838 69.056 346.059 69.504 345.376 70.016V82.144L347.552 82.432V84H340V82.432L342.016 82.144V68.704ZM366.818 84.32C365.602 84.32 364.696 84.0427 364.098 83.488C363.501 82.9333 363.202 81.984 363.202 80.64V68.352H360.898V66.912C361.005 66.8907 361.304 66.816 361.794 66.688C362.285 66.56 362.616 66.4427 362.786 66.336C363.128 66.144 363.394 65.76 363.586 65.184C363.757 64.7787 363.96 64.128 364.194 63.232C364.429 62.336 364.568 61.8027 364.61 61.632H366.498L366.562 66.24H371.906V68.352H366.562V78.176C366.562 79.392 366.594 80.2453 366.658 80.736C366.744 81.2267 366.904 81.5467 367.138 81.696C367.394 81.8453 367.821 81.92 368.418 81.92C368.994 81.92 369.624 81.8453 370.306 81.696C371.01 81.5467 371.554 81.3867 371.938 81.216L372.418 82.656C371.906 83.04 371.074 83.4133 369.922 83.776C368.792 84.1387 367.757 84.32 366.818 84.32ZM378.154 63.04C377.471 63.04 376.959 62.848 376.618 62.464C376.276 62.08 376.106 61.5893 376.106 60.992C376.106 60.3093 376.308 59.744 376.714 59.296C377.14 58.848 377.716 58.624 378.442 58.624C379.167 58.624 379.7 58.816 380.042 59.2C380.383 59.584 380.554 60.0747 380.554 60.672C380.554 61.3973 380.34 61.9733 379.914 62.4C379.508 62.8267 378.932 63.04 378.186 63.04H378.154ZM376.874 68.704L374.442 68.128V66.432L379.402 65.824H379.466L380.202 66.4V82.176L382.762 82.432V84H374.282V82.432L376.874 82.144V68.704ZM386.954 68.704L384.65 68.128V66.4L389.226 65.824H389.322L389.994 66.4V67.744L389.962 68.512C390.73 67.8293 391.743 67.2107 393.002 66.656C394.26 66.1013 395.466 65.824 396.618 65.824C397.962 65.824 398.996 66.08 399.722 66.592C400.468 67.104 400.991 67.8933 401.29 68.96C401.588 70.0053 401.738 71.424 401.738 73.216V82.176L403.978 82.4V84H396.394V82.432L398.378 82.176V73.184C398.378 71.9253 398.292 70.944 398.122 70.24C397.951 69.5147 397.631 68.9813 397.162 68.64C396.692 68.2773 396.01 68.096 395.114 68.096C394.346 68.096 393.524 68.288 392.65 68.672C391.775 69.056 390.996 69.504 390.314 70.016V82.144L392.49 82.432V84H384.938V82.432L386.954 82.144V68.704ZM413.932 92.64C411.201 92.64 409.217 92.2027 407.98 91.328C406.764 90.4747 406.156 89.2907 406.156 87.776C406.156 86.8373 406.444 85.9733 407.02 85.184C407.617 84.3947 408.321 83.7973 409.132 83.392C408.15 82.8373 407.66 81.9413 407.66 80.704C407.66 79.936 407.884 79.2107 408.332 78.528C408.78 77.8453 409.366 77.3227 410.092 76.96C409.025 76.4907 408.204 75.8187 407.628 74.944C407.073 74.0693 406.796 73.0347 406.796 71.84C406.796 70.6027 407.137 69.5253 407.82 68.608C408.524 67.6907 409.441 66.9867 410.572 66.496C411.724 66.0053 412.94 65.76 414.22 65.76C416.374 65.76 418.06 66.208 419.276 67.104C419.596 66.784 420.086 66.4747 420.748 66.176C421.409 65.8773 422.113 65.728 422.86 65.728H423.948V68.544H420.428C420.94 69.3333 421.196 70.2507 421.196 71.296C421.196 72.5547 420.876 73.6747 420.236 74.656C419.617 75.616 418.742 76.3627 417.612 76.896C416.502 77.4293 415.244 77.696 413.836 77.696C412.918 77.696 412.097 77.6 411.372 77.408C411.073 77.7067 410.828 78.0373 410.636 78.4C410.444 78.7627 410.348 79.1147 410.348 79.456C410.348 80.224 410.604 80.7573 411.116 81.056C411.628 81.3333 412.545 81.472 413.868 81.472H417.484C419.553 81.472 421.089 81.8667 422.092 82.656C423.094 83.4453 423.596 84.5653 423.596 86.016C423.596 87.232 423.158 88.3413 422.284 89.344C421.409 90.368 420.225 91.168 418.732 91.744C417.26 92.3413 415.66 92.64 413.932 92.64ZM414.156 75.936C416.588 75.936 417.804 74.496 417.804 71.616C417.804 70.1867 417.484 69.1413 416.844 68.48C416.225 67.7973 415.286 67.456 414.028 67.456C412.854 67.456 411.926 67.7867 411.244 68.448C410.561 69.088 410.22 70.1227 410.22 71.552C410.22 72.896 410.54 73.9627 411.18 74.752C411.841 75.5413 412.833 75.936 414.156 75.936ZM414.22 90.784C415.265 90.784 416.246 90.624 417.164 90.304C418.102 90.0053 418.86 89.5467 419.436 88.928C420.012 88.3307 420.3 87.6267 420.3 86.816C420.3 85.856 420.044 85.152 419.532 84.704C419.02 84.2773 418.028 84.064 416.556 84.064H412.78C411.926 84.064 411.254 84.0107 410.764 83.904C409.889 84.864 409.452 85.9413 409.452 87.136C409.452 88.3307 409.814 89.2373 410.54 89.856C411.265 90.4747 412.492 90.784 414.22 90.784Z" fill="black"/>
<defs>
<clipPath id="clip0">
<rect width="82" height="82" fill="white" transform="translate(22 30)"/>
</clipPath>
</defs>
</svg>
